<svg width="20" height="20" viewBox="0 0 20 20" fill="none" xmlns="http://www.w3.org/2000/svg">
<path d="M14.7566 12.8205C17.35 9.15827 16.4826 4.08721 12.8205 1.49437C9.15827 -1.09846 4.08721 -0.231708 1.49437 3.4311C-1.09846 7.09329 -0.231707 12.1637 3.4311 14.7566C6.045 16.6072 9.50088 16.7497 12.2579 15.1215L16.5479 18.8905C17.1948 19.5714 18.2709 19.5986 18.9518 18.9518C19.6327 18.3056 19.66 17.2295 19.0138 16.5486C18.9933 16.5269 18.9735 16.5071 18.9518 16.4866L14.7566 12.8205ZM8.12051 13.3756C5.22657 13.3762 2.88032 11.0318 2.87846 8.13786C2.87784 5.24392 5.22223 2.89766 8.1168 2.89643C11.007 2.89519 13.352 5.23586 13.3576 8.12609C13.3626 11.0206 11.0194 13.3706 8.12423 13.3756H8.12051Z" fill="#DABCCB"/>
</svg>
